<?xml version="1.0" standalone="no"?>
<!DOCTYPE svg PUBLIC "-//W3C//DTD SVG 20010904//EN"
 "http://www.w3.org/TR/2001/REC-SVG-20010904/DTD/svg10.dtd">
<svg version="1.0" xmlns="http://www.w3.org/2000/svg"
 width="578.000000pt" height="280.000000pt" viewBox="0 0 578.000000 280.000000"
 preserveAspectRatio="xMidYMid meet">

<g transform="translate(0.000000,280.000000) scale(0.100000,-0.100000)"
fill="#000000" stroke="none">
<path d="M1980 2717 c-74 -26 -1626 -922 -1623 -936 1 -5 -5 -8 -15 -7 -12 1
-17 -6 -16 -21 1 -13 -3 -20 -7 -17 -5 3 -7 10 -4 15 4 5 2 9 -3 9 -11 0 -30
-21 -31 -33 -1 -15 -75 -96 -83 -91 -14 9 -57 -97 -68 -173 -14 -88 -1 -172
40 -259 32 -65 125 -168 147 -160 7 3 12 1 10 -4 -2 -8 1145 -679 1192 -698
10 -4 12 -1 6 8 -5 9 -4 11 4 6 6 -4 9 -11 6 -15 -6 -10 380 -233 445 -257 31
-12 76 -18 145 -18 84 0 109 4 159 24 37 16 60 32 62 43 1 9 -3 17 -9 17 -7 0
-3 6 8 12 11 6 35 26 52 44 18 19 36 34 40 34 4 0 -6 -14 -22 -30 -16 -17 -25
-30 -21 -30 5 0 3 -6 -4 -14 -6 -8 -17 -13 -24 -10 -7 3 -13 -2 -13 -11 0 -24
12 -18 71 36 39 35 67 74 93 126 33 67 38 86 41 168 3 65 0 108 -12 146 -18
64 -77 165 -94 161 -7 -1 -11 4 -10 10 2 7 -3 12 -10 10 -8 -1 -11 1 -8 6 7
11 -26 42 -74 71 -42 25 -47 26 -47 6 0 -9 6 -14 14 -11 8 4 11 1 8 -5 -4 -6
0 -9 10 -7 10 2 19 -4 20 -14 3 -14 -1 -14 -30 4 -24 13 -32 25 -30 39 3 13
-5 24 -25 34 -36 19 -37 19 -37 0 0 -9 6 -14 14 -11 9 4 11 1 7 -6 -5 -7 -2
-9 8 -6 8 4 15 0 15 -7 0 -11 -5 -11 -28 1 -19 10 -27 20 -24 34 2 12 -3 24
-15 30 -23 13 -33 13 -25 1 3 -5 1 -12 -4 -16 -6 -3 -8 3 -6 14 3 16 -10 28
-60 56 -67 37 -80 42 -69 23 4 -7 3 -8 -5 -4 -6 4 -9 11 -6 15 5 9 -564 341
-586 341 -8 0 -25 10 -39 21 l-25 20 32 -15 31 -16 469 271 c517 298 540 315
601 438 33 67 37 83 40 171 4 82 1 109 -18 164 -39 118 -121 207 -242 261 -90
41 -224 46 -318 12z m-1383 -884 c-20 -2 -52 -2 -70 0 -17 2 0 4 38 4 39 0 53
-2 32 -4z m-132 -12 c-16 -4 -45 -15 -62 -25 -18 -9 -33 -14 -33 -11 0 10 76
44 100 44 23 -1 22 -2 -5 -8z m255 -11 c8 -5 11 -10 5 -10 -5 0 -17 5 -25 10
-8 5 -10 10 -5 10 6 0 17 -5 25 -10z m45 -20 c3 -6 -1 -7 -9 -4 -18 7 -21 14
-7 14 6 0 13 -4 16 -10z m95 -56 c0 -2 -9 0 -20 6 -11 6 -20 13 -20 16 0 2 9
0 20 -6 11 -6 20 -13 20 -16z m70 -40 c0 -2 -9 0 -20 6 -11 6 -20 13 -20 16 0
2 9 0 20 -6 11 -6 20 -13 20 -16z m-630 13 c0 -2 -15 -16 -32 -33 l-33 -29 29
33 c28 30 36 37 36 29z m700 -53 c0 -2 -13 2 -30 11 -16 9 -30 18 -30 21 0 2
14 -2 30 -11 17 -9 30 -18 30 -21z m50 -30 c0 -2 -9 0 -20 6 -11 6 -20 13 -20
16 0 2 9 0 20 -6 11 -6 20 -13 20 -16z m-830 -18 c0 -2 -6 -9 -14 -15 -11 -9
-16 -9 -22 0 -4 7 -3 9 4 5 6 -3 13 -2 17 4 6 10 15 14 15 6z m885 -14 c-3 -3
-11 0 -18 7 -9 10 -8 11 6 5 10 -3 15 -9 12 -12z m150 -85 c16 -15 -68 29 -90
48 -11 9 3 4 30 -11 28 -15 55 -32 60 -37z m-1081 37 c3 -8 2 -12 -4 -9 -6 3
-10 10 -10 16 0 14 7 11 14 -7z m-11 -34 c3 -11 1 -18 -4 -14 -5 3 -9 12 -9
20 0 20 7 17 13 -6z m1147 -36 c0 -2 -9 0 -20 6 -11 6 -20 13 -20 16 0 2 9 0
20 -6 11 -6 20 -13 20 -16z m-1163 -21 c-3 -10 -5 -4 -5 12 0 17 2 24 5 18 2
-7 2 -21 0 -30z m1233 -19 c0 -2 -9 0 -20 6 -11 6 -20 13 -20 16 0 2 9 0 20
-6 11 -6 20 -13 20 -16z m-1233 -71 c-3 -10 -5 -2 -5 17 0 19 2 27 5 18 2 -10
2 -26 0 -35z m1351 -15 c-2 -7 7 -13 19 -13 27 0 38 -11 22 -21 -8 -5 -10 -3
-4 6 6 10 4 12 -10 7 -19 -8 -48 10 -39 24 8 13 14 11 12 -3z m-1337 -32 c11
6 11 -4 -1 -31 -7 -16 -9 -17 -9 -3 -1 9 -3 22 -4 30 -2 7 -2 10 0 5 3 -4 9
-5 14 -1z m1433 -28 c-5 -8 -1 -9 12 -4 10 4 15 4 11 0 -4 -4 1 -13 11 -21 12
-10 7 -9 -16 2 -18 9 -30 20 -27 25 6 9 -8 14 -28 11 -5 -1 -6 3 -2 9 4 7 12
7 26 0 11 -6 16 -16 13 -22z m-1423 -31 c-10 -9 -11 -8 -5 6 3 10 9 15 12 12
3 -3 0 -11 -7 -18z m12 -22 c-3 -9 -8 -14 -10 -11 -3 3 -2 9 2 15 9 16 15 13
8 -4z m1500 1 c-4 -5 0 -7 9 -4 8 4 21 2 29 -3 9 -6 3 -8 -19 -5 -37 4 -63 22
-33 22 11 0 17 -5 14 -10z m-1457 -54 c9 -14 11 -22 4 -22 -6 0 -8 -5 -4 -12
4 -7 3 -8 -5 -4 -6 4 -18 20 -26 36 -13 25 -13 28 0 26 9 -1 22 -12 31 -24z
m1563 9 c12 -7 18 -17 15 -23 -5 -7 -2 -9 9 -5 17 6 33 -8 19 -17 -7 -4 -112
49 -112 58 0 7 48 -2 69 -13z m-1463 -117 c10 -9 8 -11 -11 -11 -14 0 -36 14
-57 36 l-33 36 35 -32 c52 -47 61 -41 15 9 l-40 43 39 -35 c22 -19 45 -40 52
-46z m1528 64 c-5 -8 -1 -9 12 -4 14 5 16 4 7 -5 -13 -13 -37 -3 -28 12 4 5 8
9 11 9 3 0 2 -5 -2 -12z m76 -31 c0 -2 -8 -3 -18 -3 -10 0 -19 6 -19 13 0 8 6
9 19 2 10 -5 18 -11 18 -12z m70 -41 c0 -2 -37 0 -48 3 -2 1 0 6 3 11 5 9 45
-3 45 -14z m-1595 -57 c-4 -5 -14 -5 -26 2 -12 6 -18 13 -15 16 3 4 0 13 -7
22 -6 8 3 5 21 -8 18 -12 30 -27 27 -32z m1612 37 c0 -8 -6 -12 -15 -9 -11 5
-11 7 0 14 7 5 13 9 14 9 0 0 1 -6 1 -14z m48 -26 c-3 -5 -12 -10 -18 -10 -7
0 -6 4 3 10 19 12 23 12 15 0z m-1622 -33 c-4 -6 0 -8 9 -5 8 4 15 0 15 -7 0
-11 -5 -11 -20 -4 -10 6 -16 13 -13 16 3 4 0 13 -7 22 -11 14 -10 14 5 2 10
-7 15 -18 11 -24z m1671 1 c-5 -7 -2 -9 8 -6 8 4 15 0 15 -7 0 -10 -5 -11 -19
-4 -10 6 -15 15 -12 21 5 7 2 9 -9 5 -17 -6 -31 5 -20 16 10 10 44 -13 37 -25z
m-1599 -38 c-3 -5 -3 -10 2 -11 38 -4 52 -8 81 -26 26 -16 30 -22 17 -27 -10
-4 -14 -2 -9 5 4 7 1 10 -7 7 -19 -7 -51 11 -43 24 4 6 1 9 -7 6 -18 -7 -51
10 -44 23 4 5 8 9 11 9 3 0 2 -4 -1 -10z m145 -96 c0 -2 -9 0 -20 6 -11 6 -20
13 -20 16 0 2 9 0 20 -6 11 -6 20 -13 20 -16z m30 7 c0 -6 -4 -12 -8 -15 -5
-3 -9 1 -9 9 0 8 4 15 9 15 4 0 8 -4 8 -9z m14 -22 c-4 -7 -1 -10 7 -7 20 7
51 -11 43 -24 -5 -7 -2 -9 8 -6 8 4 45 -11 82 -32 49 -27 63 -39 51 -43 -11
-5 -14 -3 -9 5 5 8 2 9 -10 5 -11 -5 -15 -3 -10 4 4 7 1 10 -7 7 -20 -7 -51
11 -43 24 5 8 1 9 -10 5 -11 -5 -15 -3 -10 4 4 7 1 10 -7 7 -19 -7 -51 11 -43
24 4 6 1 9 -7 6 -18 -7 -51 10 -44 23 4 5 8 9 11 9 3 0 2 -5 -2 -11z m1687
-26 c13 -16 12 -17 -3 -4 -17 13 -22 21 -14 21 2 0 10 -8 17 -17z m72 -57 c3
3 11 -4 17 -16 9 -18 9 -21 0 -15 -8 5 -11 3 -8 -6 3 -8 11 -13 17 -11 13 3
15 -5 2 -13 -5 -3 -24 16 -41 42 -19 27 -24 40 -13 30 11 -9 22 -14 26 -11z
m-1499 -68 c-5 -7 -2 -9 8 -6 8 4 15 0 15 -7 0 -10 -5 -11 -19 -4 -16 9 -17
29 -2 29 3 0 2 -5 -2 -12z m1539 -13 c-3 -9 -8 -14 -10 -11 -3 3 -2 9 2 15 9
16 15 13 8 -4z m-1489 -17 c-4 -6 -1 -9 7 -6 13 5 61 -14 86 -34 19 -16 5 -30
-18 -18 -11 6 -16 16 -13 22 5 8 1 9 -10 5 -11 -5 -15 -3 -10 5 5 7 2 9 -8 6
-19 -8 -41 6 -44 26 -1 9 2 14 7 10 5 -3 6 -10 3 -16z m1522 -54 c1 -10 4 -27
9 -36 4 -10 5 -23 2 -30 -3 -7 -6 -3 -6 9 -1 12 -5 24 -11 28 -5 3 -6 13 -3
21 3 9 0 20 -8 26 -12 8 -11 9 1 5 8 -2 15 -12 16 -23z m-1343 -30 c11 -4 16
-13 12 -21 -4 -11 -1 -13 10 -9 11 4 14 2 9 -6 -5 -7 -2 -9 8 -5 9 3 24 0 34
-8 17 -12 16 -12 -8 -10 -36 4 -70 24 -62 37 4 6 1 9 -7 6 -19 -7 -51 10 -43
23 3 6 11 8 17 5 7 -4 20 -9 30 -12z m1350 -158 c-5 -22 -15 -41 -23 -44 -11
-2 -12 -1 -3 5 7 5 12 17 13 28 0 11 4 43 7 70 7 46 8 47 11 15 1 -19 -1 -53
-5 -74z m-1213 69 c0 -2 -5 -7 -12 -11 -7 -5 -8 -3 -3 6 6 10 4 12 -8 7 -17
-6 -31 5 -20 16 5 6 43 -10 43 -18z m20 -15 c-13 -9 -13 -10 0 -11 8 -1 24 -1
35 0 l20 1 -20 -9 c-23 -10 -59 5 -50 20 4 5 12 9 18 9 7 0 6 -4 -3 -10z m86
-53 c1 -9 -2 -15 -7 -11 -5 3 -6 10 -3 16 5 8 1 9 -10 5 -11 -4 -15 -3 -11 4
10 14 28 6 31 -14z m39 -35 c-3 -3 -11 0 -18 7 -9 10 -8 11 6 5 10 -3 15 -9
12 -12z m32 -7 c0 -8 -4 -12 -9 -9 -5 3 -6 10 -3 15 9 13 12 11 12 -6z m83
-41 c0 -1 -5 -6 -12 -10 -7 -5 -8 -3 -3 6 6 10 4 12 -11 6 -10 -4 -15 -4 -11
0 4 4 1 14 -6 22 -9 11 -4 11 16 -2 15 -10 27 -20 27 -22z m933 9 c-3 -7 -6
-13 -8 -13 -2 0 -5 6 -8 13 -3 8 1 14 8 14 7 0 11 -6 8 -14z m-887 -28 l29
-15 -30 2 c-37 2 -47 7 -40 19 8 12 8 12 41 -6z m44 -35 c-13 -9 -13 -10 0
-11 8 -1 22 -1 30 0 13 2 13 0 1 -8 -10 -6 -21 -6 -33 0 -19 10 -16 29 5 29 7
0 6 -4 -3 -10z m803 4 c3 -4 2 -16 -4 -26 -13 -24 -33 -10 -23 15 6 18 16 21
27 11z m-713 -50 c9 -9 9 -14 1 -19 -6 -3 -10 -1 -9 6 2 6 -3 14 -11 17 -9 3
-11 0 -6 -8 6 -9 3 -9 -14 -1 -11 7 -21 13 -21 14 0 8 51 0 60 -9z m41 -37
c-8 -8 -14 -7 -23 2 -11 10 -9 11 6 5 15 -6 17 -4 11 6 -6 9 -4 11 4 5 9 -5
10 -10 2 -18z m76 -42 c0 -8 -4 -12 -9 -9 -5 3 -6 10 -3 15 9 13 12 11 12 -6z
m28 -4 c3 -5 2 -12 -3 -15 -5 -3 -9 1 -9 9 0 17 3 19 12 6z m410 -21 c3 -6 -1
-7 -9 -4 -18 7 -21 14 -7 14 6 0 13 -4 16 -10z m-40 -28 c-3 -3 -11 0 -18 7
-9 10 -8 11 6 5 10 -3 15 -9 12 -12z m-275 -6 c-6 -6 -18 -5 -32 1 -21 10 -21
10 9 9 19 -1 28 -5 23 -10z m245 -4 c-3 -3 -11 0 -18 7 -9 10 -8 11 6 5 10 -3
15 -9 12 -12z m-168 -19 c-3 -3 -12 -1 -19 3 -7 5 -22 8 -33 6 l-20 -2 20 9
c19 8 62 -5 52 -16z m133 12 c0 -2 -8 -3 -17 -3 -10 0 -27 -2 -38 -6 -13 -5
-12 -2 4 7 21 12 51 13 51 2z m-83 -11 c-3 -3 -12 -4 -19 -1 -8 3 -5 6 6 6 11
1 17 -2 13 -5z"/>
<path d="M200 1195 c0 -5 5 -17 10 -25 5 -8 10 -10 10 -5 0 6 -5 17 -10 25 -5
8 -10 11 -10 5z"/>
<path d="M1764 1186 c11 -9 24 -16 30 -16 12 0 7 5 -24 19 -24 11 -24 11 -6
-3z"/>
<path d="M370 1026 c0 -2 7 -7 16 -10 8 -3 12 -2 9 4 -6 10 -25 14 -25 6z"/>
<path d="M560 916 c0 -2 7 -7 16 -10 8 -3 12 -2 9 4 -6 10 -25 14 -25 6z"/>
<path d="M820 766 c0 -2 7 -7 16 -10 8 -3 12 -2 9 4 -6 10 -25 14 -25 6z"/>
<path d="M1080 616 c0 -2 7 -7 16 -10 8 -3 12 -2 9 4 -6 10 -25 14 -25 6z"/>
<path d="M1150 576 c0 -2 7 -7 16 -10 8 -3 12 -2 9 4 -6 10 -25 14 -25 6z"/>
<path d="M2465 269 c-4 -6 -5 -12 -2 -15 2 -3 7 2 10 11 7 17 1 20 -8 4z"/>
<path d="M3560 2727 c-170 -49 -289 -182 -321 -357 -15 -87 -2 -176 41 -265
57 -118 67 -124 925 -621 435 -251 818 -470 853 -487 113 -53 263 -48 383 13
70 36 146 117 186 198 37 75 38 78 38 192 0 114 -1 118 -37 191 -25 50 -55 92
-90 125 -39 37 -263 171 -854 512 -440 254 -823 471 -850 483 -60 27 -206 35
-274 16z"/>
<path d="M230 1690 c-44 -56 -34 -58 13 -4 21 24 34 44 29 44 -6 0 -25 -18
-42 -40z"/>
</g>
</svg>
